HIERARCHY
ROOT Hips
{
	OFFSET 0.000000 0.000000 0.000000
	CHANNELS 6 Xposition Yposition Zposition Zrotation Yrotation Xrotation 
	JOINT LHipJoint
	{
		OFFSET 0.000000 0.000000 0.000000
		CHANNELS 3 Zrotation Yrotation Xrotation
		JOINT LeftUpLeg
		{
			OFFSET 1.363060 -1.794630 0.839290
			CHANNELS 3 Zrotation Yrotation Xrotation
			JOINT LeftLeg
			{
				OFFSET 2.448110 -6.726130 0.000000
				CHANNELS 3 Zrotation Yrotation Xrotation
				JOINT LeftFoot
				{
					OFFSET 2.562200 -7.039590 0.000000
					CHANNELS 3 Zrotation Yrotation Xrotation
					JOINT LeftToeBase
					{
						OFFSET 0.157640 -0.433110 2.322550
						CHANNELS 3 Zrotation Yrotation Xrotation
						End Site
						{
							OFFSET 0.000000 0.000000 0.000000
						}
					}
				}
			}
		}
	}
	JOINT RHipJoint
	{
		OFFSET 0.000000 0.000000 0.000000
		CHANNELS 3 Zrotation Yrotation Xrotation
		JOINT RightUpLeg
		{
			OFFSET -1.305520 -1.794630 0.839290
			CHANNELS 3 Zrotation Yrotation Xrotation
			JOINT RightLeg
			{
				OFFSET -2.542530 -6.985550 0.000000
				CHANNELS 3 Zrotation Yrotation Xrotation
				JOINT RightFoot
				{
					OFFSET -2.568260 -7.056230 0.000000
					CHANNELS 3 Zrotation Yrotation Xrotation
					JOINT RightToeBase
					{
						OFFSET -0.164730 -0.452590 2.363150
						CHANNELS 3 Zrotation Yrotation Xrotation
						End Site
						{
							OFFSET 0.000000 0.000000 0.000000
						}
					}
				}
			}
		}
	}
}
MOTION
Frames: 25
Frame Time: 0.008333
1.245462 17.148298 1.075965 6.569046 -48.345124 13.199202 -7.677721 1.274417 6.109192 -12.251660 -22.602815 -19.701139 -2.769979 -0.871452 9.560791 0.286710 0.207576 -5.787000 0.093700 0.000000 -30.932200 10.659093 0.498764 5.309195 4.012637 24.476884 -31.334004 -2.535759 -2.767465 60.866948 -5.978121 -34.761817 10.390138 -12.608901 0.000000 -65.400100
1.246293 17.152260 1.088956 6.169423 -47.276316 13.438578 -7.653595 1.226226 6.188869 -11.807988 -23.423700 -19.624682 -2.717667 -0.827968 9.846120 0.281937 0.161240 -5.814601 0.088900 -0.000000 -31.142200 10.736459 0.558658 5.096890 4.566924 23.873180 -32.012817 -2.562590 -2.852021 62.659602 -5.740678 -33.764771 12.861315 -13.338300 0.000001 -66.518199
1.247691 17.157465 1.102125 5.733839 -46.244407 13.706003 -7.638159 1.174633 6.284516 -11.293387 -24.293260 -19.566136 -2.654061 -0.786852 10.122198 0.289502 0.198393 -5.860904 0.086200 0.000000 -31.315301 10.805195 0.614207 4.874981 5.181980 23.199761 -32.782893 -2.585530 -2.939918 64.516125 -5.496281 -32.573084 15.308328 -13.848500 -0.000000 -67.325300
1.249667 17.163701 1.115414 5.263330 -45.250679 14.003335 -7.632620 1.121294 6.394220 -10.710134 -25.189497 -19.537145 -2.581100 -0.747830 10.393482 0.306215 0.297053 -5.923413 0.084800 0.000000 -31.473999 10.865792 0.664429 4.647049 5.854228 22.465541 -33.658242 -2.607992 -3.034358 66.452112 -5.248744 -31.187668 17.654952 -14.099300 -0.000000 -67.786600
1.252160 17.170741 1.128614 4.764708 -44.297603 14.326394 -7.636307 1.067564 6.516684 -10.063921 -26.101553 -19.541457 -2.500412 -0.710954 10.658808 0.330622 0.447718 -5.998949 0.084300 -0.000000 -31.620500 10.919862 0.708929 4.414862 6.576116 21.679627 -34.648040 -2.635141 -3.139132 68.483729 -5.000886 -29.613881 19.817675 -14.063199 0.000000 -67.839000
1.255234 17.178392 1.141642 4.239456 -43.383788 14.675018 -7.650479 1.014697 6.647470 -9.360282 -27.003980 -19.589673 -2.413881 -0.675060 10.931814 0.359320 0.625619 -6.086860 0.083600 0.000000 -31.776400 10.967386 0.748149 4.182265 7.342675 20.861490 -35.755813 -2.672056 -3.256500 70.614562 -4.757346 -27.890290 21.748218 -13.758801 0.000000 -67.623400
1.258745 17.186441 1.154277 3.696269 -42.509496 15.043995 -7.674664 0.963477 6.782947 -8.607656 -27.883349 -19.683911 -2.323050 -0.639595 11.218898 0.390744 0.819657 -6.186125 0.082399 0.000000 -31.945200 11.009350 0.782897 3.951461 8.144131 20.030846 -36.979966 -2.724813 -3.388815 72.850074 -4.520148 -26.048986 23.396710 -13.208400 -0.000000 -67.201200
1.263048 17.194740 1.166384 3.132937 -41.673155 15.431415 -7.710189 0.913816 6.917231 -7.813428 -28.718507 -19.828198 -2.229091 -0.603213 11.534917 0.422454 1.011601 -6.298179 0.079700 0.000000 -32.139200 11.044752 0.814856 3.725855 8.972601 19.215211 -38.314066 -2.798178 -3.536924 75.185726 -4.291848 -24.140745 24.750216 -12.463900 0.000000 -66.759700
1.268238 17.203206 1.177765 2.551407 -40.873437 15.833910 -7.757996 0.865272 7.044707 -6.984866 -29.493428 -20.021757 -2.132913 -0.564976 11.890929 0.452788 1.189279 -6.424293 0.075000 -0.000000 -32.362400 11.072663 0.846006 3.508739 9.817653 18.443602 -39.748370 -2.896479 -3.700802 77.614642 -4.073397 -22.208746 25.809123 -11.577300 0.000000 -66.439000
1.274653 17.211785 1.188420 1.946580 -40.107615 16.252910 -7.820978 0.816960 7.158650 -6.126746 -30.184332 -20.267304 -2.035085 -0.523602 12.303997 0.479120 1.333182 -6.567506 0.067599 0.000000 -32.631100 11.090440 0.878514 3.304752 10.671375 17.747864 -41.271907 -3.022104 -3.878847 80.122040 -3.866048 -20.299101 26.605393 -10.608800 0.000000 -66.494900
1.282455 17.220425 1.198232 1.318339 -39.375101 16.685369 -7.900031 0.767501 7.254870 -5.245162 -30.785253 -20.555975 -1.935744 -0.478941 12.775965 0.501208 1.441888 -6.728791 0.057600 0.000000 -32.937600 11.096830 0.914483 3.116260 11.519674 17.151611 -42.873864 -3.177928 -4.069871 82.699012 -3.667930 -18.426508 27.158125 -9.590800 0.000000 -66.917800
1.292101 17.229192 1.207190 0.661133 -38.674803 17.130533 -7.997195 0.715274 7.329109 -4.343756 -31.287050 -20.880151 -1.834743 -0.430719 13.309977 0.518448 1.511290 -6.909268 0.044899 0.000000 -33.283200 11.089629 0.956165 2.945853 12.349225 16.675119 -44.544083 -3.365201 -4.271721 85.331622 -3.477824 -16.604338 27.505750 -8.555800 0.000000 -67.787300
1.303648 17.238153 1.215017 -0.015871 -38.009697 17.576126 -8.108830 0.658610 7.381532 -3.433721 -31.714173 -21.211095 -1.732071 -0.380534 13.880369 0.534602 1.571267 -7.101889 0.031000 0.000000 -33.639000 11.070174 1.006494 2.792309 13.133379 16.325135 -46.268615 -3.585246 -4.482668 88.008950 -3.293579 -14.829791 27.678201 -7.519699 0.000000 -69.070200
1.317901 17.247141 1.222931 -0.752094 -37.364845 18.057353 -8.250792 0.596784 7.405219 -2.487254 -31.995489 -21.593777 -1.626209 -0.325030 14.543383 0.539777 1.545284 -7.324749 0.013700 0.000000 -34.075500 11.028072 1.063993 2.663399 13.892409 16.114822 -48.060101 -3.837723 -4.698879 90.713139 -3.112791 -13.094664 27.716145 -6.494700 0.000000 -70.630900
1.334629 17.256403 1.230081 -1.516661 -36.750030 18.540034 -8.409633 0.528312 7.407637 -1.528687 -32.211122 -21.963964 -1.517546 -0.268524 15.226137 0.544956 1.519636 -7.556082 -0.003600 -0.000000 -34.514699 10.970500 1.132991 2.550630 14.578127 16.025043 -49.898072 -4.123511 -4.919535 93.437308 -2.934023 -11.390340 27.639820 -5.484700 -0.000001 -72.356600
1.354128 17.265924 1.237112 -2.323067 -36.156762 19.036912 -8.590777 0.452958 7.389301 -0.543385 -32.347609 -22.331591 -1.405108 -0.210345 15.937805 0.547551 1.475060 -7.798675 -0.021100 0.000000 -34.977200 10.893088 1.213219 2.454208 15.190021 16.043943 -51.787284 -4.441803 -5.141675 96.166472 -2.756264 -9.711369 27.478894 -4.495700 0.000000 -74.056700
1.376648 17.275770 1.244230 -3.171831 -35.581497 19.545912 -8.792881 0.370582 7.354910 0.472937 -32.427207 -22.685779 -1.288288 -0.151304 16.659442 0.549667 1.428909 -8.045901 -0.038000 0.000000 -35.452800 10.795251 1.305422 2.370365 15.712439 16.148550 -53.726474 -4.791267 -5.362991 98.886749 -2.579822 -8.059841 27.261434 -3.535300 0.000000 -75.573500
1.402223 17.286011 1.251769 -4.062877 -35.018521 20.068348 -9.015526 0.281770 7.309242 1.528020 -32.465551 -23.024184 -1.166538 -0.091676 17.380493 0.552193 1.389393 -8.292118 -0.053900 -0.000000 -35.939300 10.675743 1.409424 2.295530 16.134851 16.312554 -55.716874 -5.169582 -5.580849 101.581585 -2.406212 -6.446601 27.015521 -2.613199 0.000000 -76.767901
1.431200 17.296653 1.260106 -5.002949 -34.460152 20.608832 -9.260786 0.187143 7.255832 2.633221 -32.465763 -23.352169 -1.039166 -0.030924 18.100984 0.554287 1.351526 -8.533535 -0.068500 0.000000 -36.447400 10.531525 1.523860 2.226487 16.454197 16.509805 -57.759216 -5.573068 -5.792382 104.231700 -2.238021 -4.891468 26.770372 -1.741800 0.000000 -77.534100
1.463561 17.307801 1.269486 -5.988616 -33.900828 21.167547 -9.527768 0.087846 7.199598 3.795061 -32.442486 -23.671007 -0.905814 0.031004 18.813938 0.556668 1.322408 -8.763128 -0.081600 -0.000000 -36.977100 10.361396 1.647411 2.159751 16.660885 16.712879 -59.852454 -5.996905 -5.994771 106.816335 -2.078646 -3.419130 26.554428 -0.932900 0.000000 -77.844000
1.499715 17.319403 1.280197 -7.025356 -33.335192 21.747396 -9.818308 -0.015531 7.143196 5.021824 -32.395903 -23.988347 -0.765906 0.094946 19.523287 0.558513 1.297029 -8.976032 -0.092600 0.000000 -37.539100 10.162265 1.777766 2.092586 16.750915 16.897575 -61.994208 -6.434242 -6.185117 109.310382 -1.931751 -2.057533 26.395642 -0.198000 -0.000001 -77.729400
1.539548 17.331530 1.292228 -8.102971 -32.761742 22.344460 -10.129729 -0.121778 7.090566 6.311283 -32.340972 -24.304788 -0.619600 0.160878 20.222783 0.561162 1.286929 -9.163722 -0.101700 -0.000001 -38.127400 9.934715 1.913303 2.022809 16.706611 17.039267 -64.180655 -6.877577 -6.361125 111.690262 -1.800493 -0.828772 26.315187 0.456900 0.000000 -77.262600
1.583430 17.344101 1.305689 -9.222896 -32.179161 22.958062 -10.463235 -0.230698 7.041961 7.662412 -32.271861 -24.624995 -0.466927 0.229547 20.917981 0.563902 1.287060 -9.322480 -0.108600 0.000001 -38.750200 9.677108 2.051447 1.949251 16.518784 17.118419 -66.403652 -7.317103 -6.520592 113.928391 -1.687543 0.246931 26.331547 1.026700 -0.000000 -76.579000
1.631234 17.357076 1.320421 -10.375404 -31.589850 23.583154 -10.817673 -0.341900 6.997120 9.065340 -32.186993 -24.946805 -0.308587 0.301111 21.608703 0.567056 1.299890 -9.447697 -0.113300 0.000000 -39.405801 9.390360 2.190122 1.871442 16.170964 17.115847 -68.651736 -7.741996 -6.661983 115.997178 -1.594438 1.159340 26.454815 1.511601 -0.000000 -75.838700
1.683179 17.370330 1.336274 -11.555321 -30.999570 24.212480 -11.191892 -0.455837 6.953985 10.503980 -32.082221 -25.262382 -0.145544 0.375618 22.292375 0.571156 1.328765 -9.536504 -0.116100 -0.000000 -40.087700 9.076215 2.327777 1.789071 15.644568 17.012802 -70.908759 -8.140275 -6.784716 117.868194 -1.521349 1.908124 26.685595 1.915401 0.000000 -75.205300
